<svg width="24" height="24" viewBox="0 0 24 24" fill="none" xmlns="http://www.w3.org/2000/svg">
<path d="M23.5972 10.9252L19.9599 7.28788V3.08616C19.9599 2.32644 19.3442 1.71074 18.5834 1.71074C17.8243 1.71074 17.2086 2.32644 17.2086 3.08616V4.53668L14.5003 1.82832C13.1614 0.490046 10.8333 0.49242 9.49734 1.83074L0.402689 10.9252C-0.134189 11.4631 -0.134189 12.3336 0.402689 12.8707C0.939808 13.4085 1.81193 13.4085 2.34886 12.8707L11.4426 3.77599C11.7389 3.48129 12.261 3.48129 12.5557 3.77511L21.6511 12.8707C21.9208 13.1396 22.2724 13.2734 22.6239 13.2734C22.9762 13.2734 23.3284 13.1395 23.5972 12.8707C24.1343 12.3336 24.1343 11.4632 23.5972 10.9252Z" fill="black"/>
<path d="M12.4778 6.3869C12.2136 6.12282 11.7857 6.12282 11.5223 6.3869L3.52261 14.3842C3.39631 14.5105 3.32471 14.6828 3.32471 14.8627V20.6956C3.32471 22.0644 4.43451 23.1741 5.8032 23.1741H9.76384V17.0404H14.2354V23.1741H18.196C19.5647 23.1741 20.6745 22.0644 20.6745 20.6957V14.8627C20.6745 14.6828 20.6035 14.5105 20.4766 14.3842L12.4778 6.3869Z" fill="black"/>
</svg>
