<svg width="24" height="24" viewBox="0 0 24 24" fill="none" xmlns="http://www.w3.org/2000/svg">
<path d="M1.5 7.5019C1.10218 7.5019 0.720644 7.34388 0.43934 7.06261C0.158035 6.78134 0 6.39985 0 6.00207C0 5.60429 0.158035 5.2228 0.43934 4.94153C0.720644 4.66026 1.10218 4.50224 1.5 4.50224H5.379L9.4395 0.442209C9.61978 0.260505 9.84368 0.128111 10.0898 0.0576986C10.3359 -0.0127136 10.5959 -0.0187862 10.8451 0.040062C11.0942 0.0989103 11.324 0.220709 11.5126 0.3938C11.7011 0.566891 11.8421 0.78548 11.922 1.02864L14.157 7.72537L16.9395 4.94169C17.0786 4.80214 17.2438 4.69147 17.4259 4.61606C17.6079 4.54064 17.803 4.50196 18 4.50224H22.5C22.8978 4.50224 23.2794 4.66026 23.5607 4.94153C23.842 5.2228 24 5.60429 24 6.00207C24 6.39985 23.842 6.78134 23.5607 7.06261C23.2794 7.34388 22.8978 7.5019 22.5 7.5019H18.621L14.5605 11.5619C14.38 11.7432 14.1561 11.8753 13.9101 11.9454C13.6641 12.0156 13.4042 12.0216 13.1553 11.9627C12.9063 11.9039 12.6766 11.7823 12.488 11.6095C12.2994 11.4366 12.1582 11.2184 12.078 10.9755L9.843 4.27877L7.0605 7.06245C6.92144 7.202 6.75615 7.31266 6.57415 7.38808C6.39214 7.4635 6.19702 7.50218 6 7.5019H1.5ZM22.5 10.5016C22.8978 10.5016 23.2794 10.6596 23.5607 10.9408C23.842 11.2221 24 11.6036 24 12.0014V22.5002C24 22.898 23.842 23.2794 23.5607 23.5607C23.2794 23.842 22.8978 24 22.5 24H1.5C1.10218 24 0.720644 23.842 0.43934 23.5607C0.158035 23.2794 0 22.898 0 22.5002V12.0014C0 11.6036 0.158035 11.2221 0.43934 10.9408C0.720644 10.6596 1.10218 10.5016 1.5 10.5016C1.89782 10.5016 2.27936 10.6596 2.56066 10.9408C2.84196 11.2221 3 11.6036 3 12.0014V16.5009H6.573C7.1415 16.5009 7.6605 16.8218 7.914 17.3303L9 19.5005H15L16.086 17.3303C16.2102 17.081 16.4015 16.8712 16.6384 16.7247C16.8753 16.5782 17.1484 16.5007 17.427 16.5009H21V12.0014C21 11.6036 21.158 11.2221 21.4393 10.9408C21.7206 10.6596 22.1022 10.5016 22.5 10.5016Z" fill="white"/>
</svg>
