<svg width="173" height="161" viewBox="0 0 173 161" fill="none" xmlns="http://www.w3.org/2000/svg">
<path d="M60.2431 102.109C62.2282 105.155 62.3345 108.318 60.598 111.466C58.3651 115.507 56.9335 119.735 56.5338 124.384C56.2232 128.013 52.7025 131.006 48.7541 131.532C44.9607 132.033 41.3287 130.019 39.829 126.448C39.1935 124.937 38.7609 123.337 38.286 121.764C36.9192 117.255 34.3715 113.504 31.1156 110.131C29.8334 108.802 28.6484 107.223 27.9235 105.54C26.4751 102.153 27.4183 99.0164 29.9753 96.5076C32.5927 93.9364 35.8574 92.8483 39.3046 94.3941C43.4223 96.2415 47.637 97.154 52.1101 97.2142C55.7432 97.2639 58.5457 98.8034 60.2472 102.11L60.2431 102.109Z" fill="#FFAF42"/>
<path d="M79.8878 111.578C76.9391 113.183 73.7195 113.824 70.3094 113.022C67.4458 112.348 65.212 110.821 64.3873 107.845C63.5444 104.79 64.7598 102.285 66.9587 100.283C70.1608 97.3706 74.012 96.2776 78.2687 97.0005C81.5262 97.5568 84.1817 99.14 84.9243 102.635C85.6574 106.085 83.8944 108.596 81.3243 110.647C80.9086 110.977 80.4318 111.225 79.8837 111.577L79.8878 111.578Z" fill="#FFAF42"/>
<path d="M66.8933 96.7854C65.9067 96.9802 63.9964 97.6574 62.0721 97.6846C58.2542 97.7384 55.4907 94.8599 55.4606 91.0352C55.4247 86.8727 57.4609 83.6658 60.7149 81.3433C62.2803 80.2246 64.2073 79.3379 66.0878 78.9846C71.2879 78.0076 75.1247 81.9677 74.2428 87.195C73.5592 91.2394 71.1145 94.0795 66.8922 96.7895L66.8933 96.7854Z" fill="#FFAF42"/>
<path d="M53.4657 78.1917C56.1699 83.0237 54.2187 89.9478 49.394 92.6408C45.3397 94.9022 40.7246 93.2495 38.9835 88.915C37.0959 84.2139 38.7447 78.5191 42.8025 75.7215C46.6502 73.073 51.1912 74.1208 53.4668 78.1876L53.4657 78.1917Z" fill="#FFAF42"/>
<path d="M74.9639 130.21C70.1582 132.93 63.1955 131.025 60.4598 126.246C58.2336 122.354 59.763 117.71 63.8681 115.912C68.8349 113.733 74.9943 115.571 77.6504 120.028C79.9309 123.847 78.8265 128.028 74.9628 130.214L74.9639 130.21Z" fill="#FFAF42"/>
<path d="M105.202 64.5299C107.081 65.9391 107.846 67.8322 107.486 70.1247C107.025 73.0689 107.093 75.9485 107.88 78.8575C108.493 81.1274 107.02 83.7226 104.744 84.913C102.555 86.0579 99.9045 85.6361 98.2053 83.8044C97.487 83.0277 96.8715 82.1571 96.2341 81.3076C94.4048 78.8724 92.0303 77.1635 89.3112 75.8408C88.2385 75.3185 87.1693 74.6241 86.3616 73.7628C84.7317 72.0285 84.6104 69.9191 85.6076 67.8323C86.6248 65.6938 88.3649 64.3114 90.7977 64.4863C93.7022 64.6964 96.4616 64.3128 99.186 63.364C101.4 62.5919 103.44 62.9046 105.202 64.5299Z" fill="#FFAF42"/>
<path d="M119.211 65.9253C117.776 67.5522 115.969 68.6519 113.723 68.9202C111.837 69.1469 110.143 68.7163 108.986 67.0908C107.799 65.4241 107.982 63.637 108.872 61.937C110.171 59.4633 112.265 57.9473 115.003 57.4424C117.102 57.0553 119.063 57.4325 120.285 59.3879C121.492 61.3181 120.978 63.2309 119.877 65.0442C119.7 65.3377 119.462 65.5919 119.211 65.9253Z" fill="#FFAF42"/>
<path d="M108.06 59.8301C107.506 60.1657 106.496 61.0009 105.336 61.4401C103.029 62.317 100.722 61.1847 99.8549 58.8716C98.9118 56.3558 99.4377 53.9575 100.897 51.8304C101.599 50.806 102.573 49.8417 103.632 49.2118C106.572 47.468 109.771 49.0222 110.392 52.3871C110.871 54.9903 110.021 57.2522 108.056 59.8292L108.06 59.8301Z" fill="#FFAF42"/>
<path d="M95.8016 51.5247C98.5135 53.8569 98.8594 58.4873 96.5299 61.1869C94.5725 63.4545 91.4092 63.4767 89.3906 61.233C87.2062 58.8014 86.9449 54.9803 88.7881 52.3893C90.5367 49.9329 93.5216 49.5645 95.8016 51.5247Z" fill="#FFAF42"/>
<path d="M120.349 78.3134C118.034 81.0248 113.39 81.411 110.674 79.1167C108.46 77.2489 108.363 74.0948 110.455 72.0947C112.987 69.6732 117.125 69.4258 119.725 71.5389C121.952 73.349 122.21 76.1282 120.35 78.3092L120.349 78.3134Z" fill="#FFAF42"/>
<path d="M135.203 31.6077C136.463 32.598 136.955 33.9064 136.671 35.4657C136.31 37.4699 136.308 39.4353 136.8 41.4368C137.181 42.9971 136.135 44.746 134.561 45.522C133.045 46.2683 131.244 45.9391 130.115 44.66C129.637 44.1185 129.23 43.5097 128.808 42.9234C127.597 41.2333 126.004 40.0294 124.169 39.0783C123.445 38.7019 122.727 38.2122 122.187 37.6128C121.101 36.4016 121.052 34.9587 121.765 33.5483C122.493 32.1036 123.704 31.1858 125.364 31.3466C127.345 31.5365 129.235 31.3233 131.111 30.7155C132.635 30.2222 134.025 30.4704 135.199 31.6104L135.203 31.6077Z" fill="#FFAF42"/>
<path d="M144.749 32.7854C143.744 33.8728 142.492 34.5969 140.954 34.7436C139.662 34.8662 138.512 34.5452 137.75 33.4204C136.967 32.2633 137.119 31.0435 137.754 29.9007C138.681 28.2317 140.135 27.2325 142.014 26.931C143.452 26.7015 144.786 26.9886 145.592 28.3433C146.385 29.6815 146.003 30.9781 145.224 32.1982C145.097 32.3974 144.931 32.5683 144.754 32.7919L144.749 32.7854Z" fill="#FFAF42"/>
<path d="M137.23 28.4446C136.845 28.6666 136.143 29.2199 135.34 29.5012C133.752 30.0624 132.193 29.2525 131.638 27.6582C131.036 25.9237 131.433 24.2957 132.466 22.8663C132.962 22.1764 133.641 21.5335 134.376 21.1219C136.413 19.9795 138.572 21.0922 138.941 23.3983C139.228 25.1854 138.607 26.7169 137.224 28.444L137.23 28.4446Z" fill="#FFAF42"/>
<path d="M128.992 22.5759C130.805 24.2149 130.972 27.3812 129.337 29.1858C127.964 30.704 125.801 30.6653 124.46 29.1019C123.007 27.4063 122.889 24.7915 124.192 23.0526C125.426 21.4022 127.471 21.2 128.992 22.5759Z" fill="#FFAF42"/>
<path d="M145.323 41.266C143.702 43.0811 140.521 43.27 138.705 41.6606C137.225 40.3492 137.209 38.1927 138.666 36.8608C140.434 35.2477 143.266 35.1438 145.006 36.6307C146.499 37.9046 146.63 39.8065 145.323 41.266Z" fill="#FFAF42"/>
</svg>
