<svg width="20" height="20" viewBox="0 0 20 20" fill="none" xmlns="http://www.w3.org/2000/svg">
<path d="M5.3732 6.64118C5.63516 4.2836 7.62791 2.5 10 2.5V2.5C12.3721 2.5 14.3648 4.2836 14.6268 6.64118L14.8366 8.5297C14.9443 9.4985 15.2596 10.4327 15.7611 11.2685L16.2428 12.0714C16.5455 12.5759 16.6969 12.8281 16.7246 13.0315C16.7854 13.4772 16.5412 13.9087 16.1277 14.0858C15.939 14.1667 15.6448 14.1667 15.0565 14.1667H4.94353C4.35515 14.1667 4.06097 14.1667 3.87233 14.0858C3.45885 13.9087 3.21456 13.4772 3.27537 13.0315C3.30311 12.8281 3.45447 12.5759 3.75718 12.0714L4.23888 11.2685C4.74039 10.4327 5.05572 9.4985 5.16337 8.5297L5.3732 6.64118Z" stroke="#33363F" stroke-width="2"/>
<path d="M6.66659 14.1667C6.66659 14.6044 6.7528 15.0379 6.92032 15.4423C7.08784 15.8467 7.33337 16.2142 7.6429 16.5237C7.95242 16.8332 8.31989 17.0787 8.72431 17.2463C9.12873 17.4138 9.56218 17.5 9.99992 17.5C10.4377 17.5 10.8711 17.4138 11.2755 17.2463C11.6799 17.0787 12.0474 16.8332 12.3569 16.5237C12.6665 16.2142 12.912 15.8467 13.0795 15.4423C13.247 15.0379 13.3333 14.6044 13.3333 14.1667" stroke="#33363F" stroke-width="2" stroke-linecap="round"/>
</svg>
