<svg width="14" height="14" viewBox="0 0 14 14" fill="none" xmlns="http://www.w3.org/2000/svg">
<path d="M8.30391 6.71133L13.0992 1.91602C13.5352 1.48008 13.5352 0.762891 13.0992 0.326953C12.6633 -0.108984 11.9461 -0.108984 11.5102 0.326953L6.71485 5.12227L1.91953 0.326954C1.48359 -0.108984 0.766408 -0.108984 0.33047 0.326954C0.112501 0.544923 9.53674e-07 0.833205 9.53674e-07 1.12149C9.53674e-07 1.40977 0.112501 1.69805 0.33047 1.91602L5.12578 6.71133L0.330469 11.5066C0.1125 11.7246 0 12.0129 0 12.3012C0 12.5895 0.1125 12.8777 0.330469 13.0957C0.766407 13.5316 1.48359 13.5316 1.91953 13.0957L6.71484 8.30039L11.5102 13.0957C11.9461 13.5316 12.6633 13.5316 13.0992 13.0957C13.5352 12.6598 13.5352 11.9426 13.0992 11.5066L8.30391 6.71133Z" fill="black"/>
</svg>
