<svg width="45" height="45" viewBox="0 0 45 45" fill="none" xmlns="http://www.w3.org/2000/svg">
<path d="M23.3063 19.7184C25.1854 21.1276 25.9507 23.0207 25.5907 25.3132C25.1299 28.2574 25.1975 31.137 25.9845 34.0459C26.5973 36.3159 25.1248 38.9111 22.8482 40.1014C20.6594 41.2464 18.009 40.8246 16.3098 38.9929C15.5915 38.2162 14.976 37.3456 14.3386 36.4961C12.5093 34.0609 10.1348 32.352 7.41574 31.0293C6.34303 30.5069 5.2738 29.8126 4.46614 28.9513C2.83616 27.217 2.71492 25.1076 3.71207 23.0208C4.72929 20.8823 6.46941 19.4999 8.90217 19.6748C11.8067 19.8849 14.5661 19.5012 17.2905 18.5525C19.5049 17.7804 21.5442 18.0931 23.3063 19.7184Z" fill="#FFAF42"/>
<path d="M37.3168 21.1135C35.8812 22.7405 34.074 23.8402 31.8284 24.1084C29.942 24.3351 28.2484 23.9045 27.0913 22.279C25.9043 20.6124 26.0877 18.8253 26.9777 17.1253C28.2765 14.6515 30.3702 13.1355 33.1088 12.6306C35.2078 12.2435 37.1681 12.6208 38.3906 14.5761C39.5971 16.5063 39.0834 18.4192 37.9825 20.2324C37.8053 20.5259 37.5676 20.7801 37.3168 21.1135Z" fill="#FFAF42"/>
<path d="M26.1641 15.0186C25.6103 15.3541 24.6004 16.1894 23.4404 16.6286C21.1337 17.5055 18.8262 16.3732 17.9593 14.06C17.0163 11.5443 17.5422 9.14593 19.002 7.01884C19.7037 5.99445 20.6774 5.03017 21.7369 4.4003C24.676 2.65646 27.8754 4.21067 28.4967 7.57561C28.9754 10.1788 28.1253 12.4407 26.16 15.0177L26.1641 15.0186Z" fill="#FFAF42"/>
<path d="M13.9071 6.71315C16.619 9.04534 16.9649 13.6758 14.6354 16.3754C12.678 18.643 9.51465 18.6652 7.49608 16.4215C5.31167 13.9899 5.05039 10.1688 6.89355 7.57775C8.64212 5.12134 11.6271 4.75297 13.9071 6.71315Z" fill="#FFAF42"/>
<path d="M38.4533 33.5018C36.1385 36.2133 31.4948 36.5994 28.7788 34.3052C26.5648 32.4374 26.4672 29.2833 28.5599 27.2832C31.0914 24.8617 35.2292 24.6142 37.8297 26.7274C40.0564 28.5375 40.3148 31.3167 38.4542 33.4977L38.4533 33.5018Z" fill="#FFAF42"/>
</svg>
