<svg width="185" height="449" viewBox="0 0 185 449" fill="none" xmlns="http://www.w3.org/2000/svg">
<g filter="url(#filter0_d_229_1947)">
<path d="M105.03 75.9778C98.6204 70.2178 96.4404 63.0379 98.4904 54.7679C101.13 44.1479 101.82 33.5878 99.8904 22.6978C98.3804 14.1978 104.61 5.18785 113.33 1.56785C121.71 -1.90215 131.26 0.487839 136.88 7.74784C139.26 10.8178 141.23 14.2178 143.28 17.5278C149.17 27.0178 157.3 34.0478 166.82 39.7778C170.57 42.0378 174.25 44.9278 176.94 48.3378C182.33 55.2078 182.09 62.9678 177.77 70.2778C173.35 77.7678 166.54 82.2579 157.7 80.8279C147.14 79.1179 136.93 79.6079 126.65 82.2079C118.3 84.3179 110.94 82.5078 105.02 75.9778H105.03Z" fill="white" fill-opacity="0.8"/>
<path d="M54.2501 66.3177C60.0201 60.8377 67.0001 57.3977 75.3001 57.1477C82.2701 56.9377 88.3201 59.0677 92.0301 65.3777C95.8301 71.8577 94.5801 78.3377 90.7701 84.2677C85.2201 92.8977 77.0701 97.7578 66.8801 98.7078C59.0801 99.4278 52.0301 97.4277 48.1901 89.8777C44.4001 82.4277 46.9001 75.5977 51.5301 69.3277C52.2801 68.3177 53.2201 67.4577 54.2601 66.3177H54.2501Z" fill="white" fill-opacity="0.8"/>
<path d="M93.06 92.2379C95.2 91.1879 99.16 88.4679 103.55 87.2279C112.26 84.7679 120.35 89.6679 122.76 98.4079C125.39 107.918 122.69 116.508 116.66 123.818C113.76 127.338 109.89 130.548 105.8 132.508C94.49 137.928 83.28 131.208 82.1 118.698C81.19 109.018 85.05 101.018 93.06 92.2279V92.2379Z" fill="white" fill-opacity="0.8"/>
<path d="M135.191 126.598C126.041 117.188 126.271 100.138 135.671 91.0178C143.571 83.3578 155.151 84.3178 161.791 93.1778C168.991 102.788 168.701 116.838 161.121 125.728C153.931 134.148 142.891 134.528 135.191 126.608V126.598Z" fill="white" fill-opacity="0.8"/>
<path d="M54.1202 20.638C63.4602 11.468 80.5702 11.568 89.7602 20.838C97.2402 28.388 96.5802 39.958 88.2802 46.588C78.2402 54.618 63.0102 54.178 54.2002 45.598C46.6402 38.248 46.6102 27.998 54.1202 20.628V20.638Z" fill="white" fill-opacity="0.8"/>
<path d="M47.6106 197.518C42.5406 195.218 39.8006 191.228 39.4606 185.738C39.0206 178.688 37.3906 172.058 34.0806 165.728C31.5006 160.788 33.5806 154.028 38.2406 150.108C42.7206 146.338 49.0706 145.958 53.9406 149.328C56.0006 150.758 57.8706 152.458 59.7806 154.098C65.2606 158.798 71.6306 161.538 78.6006 163.208C81.3506 163.868 84.1806 164.928 86.4906 166.508C91.1506 169.688 92.5106 174.508 91.2706 179.848C90.0106 185.318 86.6906 189.408 80.9706 190.248C74.1406 191.248 67.9506 193.548 62.1306 197.138C57.4006 200.058 52.5206 200.378 47.6106 197.518Z" fill="white" fill-opacity="0.8"/>
<path d="M14.4707 201.458C16.9607 196.958 20.5807 193.488 25.6407 191.718C29.8907 190.228 34.0307 190.358 37.5407 193.528C41.1407 196.778 41.6307 201.008 40.4407 205.398C38.7007 211.788 34.6307 216.368 28.5507 218.938C23.8907 220.908 19.1607 221.038 15.3307 217.138C11.5507 213.288 11.7607 208.598 13.3807 203.838C13.6407 203.068 14.0607 202.358 14.4707 201.458Z" fill="white" fill-opacity="0.8"/>
<path d="M43.4006 209.858C44.5106 208.798 46.4206 206.348 48.8806 204.738C53.7706 201.528 59.6906 202.968 62.8806 207.878C66.3506 213.218 66.3606 219.038 64.0706 224.708C62.9706 227.438 61.2106 230.168 59.0806 232.168C53.1706 237.708 44.9706 235.748 41.8106 228.278C39.3706 222.498 40.1806 216.828 43.4106 209.858H43.4006Z" fill="white" fill-opacity="0.8"/>
<path d="M76.0208 222.808C68.5508 218.798 65.3807 208.258 69.3907 200.818C72.7607 194.568 80.0707 192.898 85.8907 197.058C92.1908 201.568 94.7508 210.278 91.8108 217.218C89.0208 223.798 82.3008 226.178 76.0208 222.808Z" fill="white" fill-opacity="0.8"/>
<path d="M5.50028 173.368C9.47028 165.908 20.0203 162.638 27.4803 166.558C33.5603 169.748 35.4003 176.998 31.5803 182.698C26.9603 189.598 17.5103 192.288 10.4103 188.728C4.33027 185.678 2.31028 179.378 5.50028 173.378V173.368Z" fill="white" fill-opacity="0.8"/>
<path d="M46.6109 299.578C42.9109 300.438 39.7609 299.408 37.3009 296.568C34.1309 292.928 30.5009 290.008 26.0709 287.948C22.6209 286.338 20.9409 281.808 21.8409 277.748C22.7109 273.838 25.9909 270.998 30.0309 270.808C31.7409 270.728 33.4709 270.878 35.1809 270.968C40.1009 271.238 44.6909 270.078 49.1709 268.098C50.9409 267.318 52.9109 266.718 54.8209 266.608C58.6709 266.398 61.4109 268.448 62.9609 271.858C64.5509 275.348 64.4509 278.948 61.6909 281.778C58.4009 285.158 55.9909 288.968 54.3309 293.338C52.9809 296.888 50.4609 299.088 46.6109 299.568V299.578Z" fill="white" fill-opacity="0.8"/>
<path d="M30.2708 315.478C29.7508 312.008 30.2708 308.618 32.2808 305.558C33.9708 302.988 36.2708 301.338 39.4808 301.598C42.7808 301.868 44.8108 303.958 45.9808 306.828C47.6908 311.018 47.3808 315.188 45.1508 319.108C43.4408 322.108 40.9308 324.148 37.2308 323.628C33.5808 323.108 31.7508 320.478 30.6508 317.228C30.4708 316.698 30.4008 316.138 30.2508 315.478H30.2708Z" fill="white" fill-opacity="0.8"/>
<path d="M49.4511 308.018C49.6111 306.978 49.6311 304.858 50.3011 302.958C51.6211 299.188 55.4311 297.508 59.2011 298.848C63.3011 300.308 65.7211 303.458 66.8311 307.488C67.3711 309.428 67.5511 311.638 67.2211 313.608C66.3111 319.068 61.0511 321.408 56.2411 318.668C52.5111 316.548 50.6011 313.128 49.4611 308.008L49.4511 308.018Z" fill="white" fill-opacity="0.8"/>
<path d="M72.5208 301.498C66.8008 302.418 60.7008 298.028 59.7908 292.328C59.0208 287.538 62.3008 283.598 67.1808 283.438C72.4708 283.268 77.4808 286.928 78.7608 291.918C79.9808 296.648 77.3208 300.728 72.5208 301.498Z" fill="white" fill-opacity="0.8"/>
<path d="M13.7407 303.958C12.7907 298.268 17.1607 292.108 22.8307 291.138C27.4507 290.348 31.4607 293.518 31.7607 298.188C32.1207 303.848 28.1107 309.238 22.7807 310.248C18.2107 311.118 14.5007 308.538 13.7407 303.958Z" fill="white" fill-opacity="0.8"/>
<path d="M86.0303 375.978C83.3703 377.528 80.6903 377.488 78.1003 375.888C74.7703 373.828 71.2503 372.438 67.3403 371.908C64.2803 371.498 61.8903 368.388 61.6103 365.028C61.3403 361.798 63.2003 358.808 66.2903 357.688C67.6003 357.218 68.9703 356.918 70.3203 356.578C74.2003 355.608 77.4703 353.608 80.4603 350.988C81.6403 349.958 83.0203 349.018 84.4803 348.478C87.4103 347.388 90.0203 348.318 92.0403 350.588C94.1103 352.908 94.8903 355.718 93.4403 358.568C91.7003 361.978 90.7603 365.508 90.5203 369.288C90.3303 372.358 88.9103 374.668 86.0403 375.968L86.0303 375.978Z" fill="white" fill-opacity="0.8"/>
<path d="M77.2011 392.218C75.9711 389.658 75.5511 386.908 76.3811 384.048C77.0711 381.658 78.4511 379.828 81.0111 379.248C83.6311 378.658 85.7011 379.798 87.3011 381.738C89.6311 384.568 90.4011 387.878 89.6111 391.448C89.0011 394.188 87.5511 396.368 84.5611 396.848C81.6111 397.328 79.5611 395.728 77.9311 393.468C77.6711 393.108 77.4811 392.688 77.2011 392.208V392.218Z" fill="white" fill-opacity="0.8"/>
<path d="M90.2606 381.828C90.1306 380.988 89.6406 379.338 89.7006 377.708C89.8206 374.478 92.3606 372.258 95.6006 372.388C99.1306 372.528 101.751 374.388 103.591 377.238C104.471 378.608 105.141 380.278 105.361 381.888C105.971 386.328 102.461 389.408 98.0706 388.448C94.6806 387.698 92.3706 385.518 90.2606 381.828Z" fill="white" fill-opacity="0.8"/>
<path d="M106.561 371.238C102.361 373.328 96.5806 371.388 94.5006 367.188C92.7506 363.668 94.3406 359.828 98.0906 358.528C102.151 357.128 106.901 358.758 109.101 362.308C111.181 365.678 110.101 369.478 106.571 371.228L106.561 371.238Z" fill="white" fill-opacity="0.8"/>
<path d="M61.6409 387.268C59.5409 383.088 61.4409 377.268 65.6009 375.158C68.9909 373.438 72.8509 374.928 74.2109 378.468C75.8509 382.768 74.0409 387.898 70.1509 389.968C66.8209 391.738 63.3309 390.628 61.6409 387.268Z" fill="white" fill-opacity="0.8"/>
<path d="M144.621 424.088C142.911 425.788 140.881 426.278 138.601 425.568C135.681 424.658 132.751 424.298 129.681 424.668C127.291 424.948 124.871 423.068 124.001 420.588C123.161 418.198 123.991 415.568 126.101 414.118C126.991 413.508 127.971 413.008 128.931 412.488C131.671 410.998 133.761 408.838 135.511 406.278C136.201 405.268 137.061 404.288 138.061 403.598C140.061 402.208 142.221 402.398 144.191 403.718C146.211 405.068 147.351 407.038 146.811 409.478C146.161 412.398 146.141 415.248 146.701 418.158C147.151 420.518 146.531 422.538 144.621 424.088Z" fill="white" fill-opacity="0.8"/>
<path d="M141.11 438.098C139.67 436.398 138.83 434.398 138.89 432.088C138.94 430.138 139.63 428.488 141.45 427.558C143.32 426.598 145.1 427.058 146.7 428.208C149.02 429.888 150.24 432.248 150.34 435.098C150.42 437.288 149.75 439.218 147.58 440.168C145.44 441.108 143.58 440.298 141.9 438.908C141.63 438.688 141.4 438.408 141.11 438.098Z" fill="white" fill-opacity="0.8"/>
<path d="M148.96 427.688C148.7 427.078 148.01 425.928 147.73 424.688C147.18 422.218 148.68 420.048 151.15 419.508C153.84 418.928 156.2 419.818 158.14 421.618C159.08 422.488 159.91 423.608 160.39 424.788C161.72 428.028 159.67 431.048 156.16 431.178C153.45 431.278 151.28 430.078 148.96 427.698V427.688Z" fill="white" fill-opacity="0.8"/>
<path d="M159.211 416.488C156.441 418.888 151.691 418.558 149.301 415.788C147.291 413.468 147.741 410.248 150.321 408.538C153.111 406.688 157.031 406.988 159.381 409.248C161.611 411.388 161.541 414.468 159.211 416.488Z" fill="white" fill-opacity="0.8"/>
<path d="M128.38 437.408C125.97 434.658 126.27 429.888 129 427.478C131.23 425.508 134.44 425.878 136.16 428.298C138.24 431.228 137.87 435.468 135.34 437.788C133.17 439.778 130.31 439.628 128.38 437.418V437.408Z" fill="white" fill-opacity="0.8"/>
</g>
<defs>
<filter id="filter0_d_229_1947" x="0.000976562" y="0" width="184.999" height="448.573" filterUnits="userSpaceOnUse" color-interpolation-filters="sRGB">
<feFlood flood-opacity="0" result="BackgroundImageFix"/>
<feColorMatrix in="SourceAlpha" type="matrix" values="0 0 0 0 0 0 0 0 0 0 0 0 0 0 0 0 0 0 127 0" result="hardAlpha"/>
<feOffset dy="4"/>
<feGaussianBlur stdDeviation="2"/>
<feComposite in2="hardAlpha" operator="out"/>
<feColorMatrix type="matrix" values="0 0 0 0 0 0 0 0 0 0 0 0 0 0 0 0 0 0 0.25 0"/>
<feBlend mode="normal" in2="BackgroundImageFix" result="effect1_dropShadow_229_1947"/>
<feBlend mode="normal" in="SourceGraphic" in2="effect1_dropShadow_229_1947" result="shape"/>
</filter>
</defs>
</svg>
