<svg width="170" height="416" viewBox="0 0 170 416" fill="none" xmlns="http://www.w3.org/2000/svg">
<g filter="url(#filter0_d_336_961)">
<path d="M74.6862 336.845C80.7548 342.02 82.9442 348.61 81.2467 356.31C79.0598 366.198 78.6755 375.984 80.7229 386.012C82.3243 393.839 76.7775 402.324 68.7975 405.883C61.1285 409.295 52.2361 407.313 46.8623 400.732C44.5867 397.949 42.6825 394.851 40.7064 391.838C35.0291 383.201 27.3388 376.893 18.3939 371.821C14.8703 369.82 11.3964 367.235 8.82579 364.145C3.67415 357.919 3.70953 350.734 7.53021 343.868C11.4391 336.832 17.6311 332.515 25.8436 333.625C35.654 334.953 45.0876 334.254 54.5353 331.602C62.2093 329.449 69.0617 330.946 74.6955 336.845L74.6862 336.845Z" fill="white" fill-opacity="0.8"/>
<path d="M121.896 344.56C116.69 349.769 110.316 353.119 102.643 353.55C96.2001 353.912 90.5519 352.087 86.9679 346.339C83.2966 340.435 84.2971 334.411 87.6792 328.833C92.606 320.716 100.029 316.024 109.433 314.9C116.632 314.046 123.202 315.727 126.936 322.619C130.621 329.42 128.473 335.798 124.34 341.71C123.671 342.663 122.822 343.481 121.887 344.561L121.896 344.56Z" fill="white" fill-opacity="0.8"/>
<path d="M85.3687 321.515C83.4142 322.538 79.8162 325.149 75.7847 326.402C67.7861 328.887 60.1841 324.549 57.7443 316.521C55.0825 307.787 57.3737 299.775 62.7763 292.867C65.3745 289.541 68.8775 286.478 72.6141 284.567C82.9468 279.281 93.479 285.228 94.8716 296.773C95.9463 305.706 92.5677 313.2 85.369 321.524L85.3687 321.515Z" fill="white" fill-opacity="0.8"/>
<path d="M45.5674 290.741C54.2586 299.226 54.4559 315.005 45.9792 323.668C38.855 330.945 28.119 330.335 21.7631 322.298C14.8711 313.581 14.8014 300.576 21.6 292.17C28.0491 284.207 38.2532 283.59 45.5672 290.732L45.5674 290.741Z" fill="white" fill-opacity="0.8"/>
<path d="M123.115 386.817C114.695 395.525 98.8637 395.844 90.1389 387.489C83.0374 380.684 83.3697 369.965 90.8887 363.632C99.9838 355.961 114.084 356.002 122.441 363.728C129.611 370.345 129.886 379.827 123.115 386.826L123.115 386.817Z" fill="white" fill-opacity="0.8"/>
</g>
<g filter="url(#filter1_d_336_961)">
<path d="M124.883 223.025C129.629 225.031 132.26 228.657 132.706 233.727C133.283 240.239 134.95 246.333 138.165 252.109C140.67 256.618 138.909 262.921 134.692 266.66C130.638 270.255 124.773 270.76 120.186 267.759C118.246 266.486 116.475 264.958 114.669 263.487C109.486 259.271 103.527 256.889 97.0392 255.512C94.4792 254.967 91.8356 254.055 89.6606 252.649C85.2731 249.819 83.899 245.392 84.9177 240.422C85.9518 235.332 88.9248 231.468 94.1963 230.553C100.491 229.464 106.162 227.187 111.46 223.726C115.765 220.911 120.272 220.498 124.883 223.025Z" fill="white" fill-opacity="0.8"/>
<path d="M155.447 218.583C153.252 222.806 149.986 226.104 145.348 227.863C141.452 229.343 137.619 229.323 134.295 226.475C130.887 223.554 130.332 219.653 131.327 215.563C132.783 209.61 136.438 205.275 142.001 202.751C146.265 200.816 150.637 200.582 154.274 204.098C157.864 207.569 157.782 211.913 156.398 216.355C156.176 217.074 155.805 217.741 155.447 218.583Z" fill="white" fill-opacity="0.8"/>
<path d="M128.481 211.508C127.48 212.516 125.772 214.828 123.535 216.377C119.088 219.464 113.577 218.274 110.508 213.809C107.169 208.952 107.02 203.568 109.002 198.267C109.954 195.715 111.516 193.147 113.439 191.246C118.773 185.979 126.406 187.595 129.509 194.429C131.905 199.718 131.293 204.983 128.472 211.509L128.481 211.508Z" fill="white" fill-opacity="0.8"/>
<path d="M97.9925 200.313C105 203.843 108.186 213.517 104.655 220.496C101.688 226.359 94.9652 228.08 89.481 224.372C83.5443 220.351 80.9665 212.355 83.5194 205.864C85.9422 199.709 92.1017 197.346 97.9925 200.313Z" fill="white" fill-opacity="0.8"/>
<path d="M164.421 244.354C160.928 251.351 151.246 254.63 144.251 251.183C138.549 248.378 136.673 241.715 140.07 236.35C144.178 229.856 152.855 227.14 159.509 230.263C165.207 232.938 167.228 238.718 164.421 244.345L164.421 244.354Z" fill="white" fill-opacity="0.8"/>
</g>
<g filter="url(#filter2_d_336_961)">
<path d="M123.354 128.584C126.756 127.699 129.695 128.576 132.039 131.144C135.059 134.436 138.488 137.05 142.636 138.849C145.866 140.255 147.529 144.406 146.794 148.183C146.083 151.821 143.117 154.528 139.384 154.801C137.804 154.916 136.2 154.819 134.616 154.776C130.058 154.645 125.84 155.828 121.743 157.768C120.124 158.532 118.316 159.135 116.552 159.282C112.995 159.569 110.411 157.739 108.895 154.621C107.34 151.431 107.346 148.098 109.831 145.413C112.794 142.207 114.932 138.625 116.362 134.542C117.526 131.225 119.804 129.13 123.354 128.593L123.354 128.584Z" fill="white" fill-opacity="0.8"/>
<path d="M138.088 113.481C138.652 116.679 138.253 119.828 136.467 122.707C134.965 125.125 132.877 126.707 129.901 126.543C126.842 126.373 124.914 124.488 123.762 121.861C122.08 118.026 122.266 114.161 124.235 110.481C125.745 107.664 128.018 105.717 131.453 106.109C134.842 106.502 136.598 108.891 137.694 111.871C137.873 112.357 137.952 112.874 138.106 113.481L138.088 113.481Z" fill="white" fill-opacity="0.8"/>
<path d="M120.523 120.844C120.4 121.81 120.432 123.772 119.858 125.546C118.728 129.065 115.243 130.711 111.724 129.562C107.895 128.31 105.581 125.454 104.457 121.752C103.911 119.971 103.691 117.93 103.949 116.1C104.66 111.027 109.469 108.736 113.985 111.155C117.487 113.026 119.336 116.144 120.514 120.854L120.523 120.844Z" fill="white" fill-opacity="0.8"/>
<path d="M99.3375 127.431C104.607 126.442 110.356 130.356 111.335 135.608C112.162 140.02 109.223 143.744 104.712 144.01C99.8223 144.294 95.0994 141.029 93.7952 136.443C92.5528 132.097 94.9155 128.258 99.3375 127.431Z" fill="white" fill-opacity="0.8"/>
<path d="M153.657 123.741C154.673 128.982 150.778 134.786 145.556 135.82C141.301 136.662 137.515 133.825 137.125 129.512C136.656 124.285 140.236 119.202 145.143 118.139C149.35 117.225 152.844 119.522 153.657 123.741Z" fill="white" fill-opacity="0.8"/>
</g>
<g filter="url(#filter3_d_336_961)">
<path d="M85.0476 58.8526C87.4712 57.3547 89.9515 57.3272 92.386 58.7451C95.5162 60.5708 98.806 61.772 102.436 62.1683C105.277 62.474 107.563 65.2936 107.902 68.3953C108.23 71.3769 106.581 74.1877 103.749 75.2982C102.549 75.7645 101.289 76.075 100.048 76.422C96.4818 77.4127 93.5047 79.3416 90.8016 81.8373C89.7348 82.8186 88.4807 83.7214 87.143 84.2561C84.4587 85.3349 82.0217 84.5373 80.0984 82.4859C78.1276 80.3894 77.3384 77.8086 78.6113 75.1371C80.139 71.9406 80.9237 68.6524 81.0548 65.1496C81.1567 62.3049 82.4148 60.1338 85.0386 58.8621L85.0476 58.8526Z" fill="white" fill-opacity="0.8"/>
<path d="M92.8258 43.6164C94.0253 45.9551 94.48 48.4891 93.7809 51.1549C93.2001 53.3825 91.9674 55.1087 89.6131 55.7068C87.2035 56.3157 85.2611 55.3108 83.7342 53.5546C81.5106 50.9925 80.7186 47.9489 81.3636 44.6272C81.862 42.0777 83.151 40.0261 85.9056 39.5101C88.6231 38.9951 90.5581 40.426 92.1204 42.4776C92.3696 42.8043 92.5555 43.1883 92.8261 43.6257L92.8258 43.6164Z" fill="white" fill-opacity="0.8"/>
<path d="M80.9936 53.5425C81.134 54.3165 81.627 55.8311 81.6107 57.3405C81.5774 60.3315 79.281 62.4464 76.2805 62.404C73.0115 62.3594 70.5429 60.7017 68.7721 58.1094C67.9251 56.8632 67.2651 55.3343 67.0228 53.8502C66.3517 49.7573 69.5248 46.8235 73.6092 47.6061C76.7633 48.2184 78.9528 50.1796 80.9936 53.5425Z" fill="white" fill-opacity="0.8"/>
<path d="M66.1691 63.7316C70.0044 61.6971 75.3982 63.3528 77.4235 67.1882C79.1271 70.4026 77.7485 73.9933 74.3106 75.2861C70.5883 76.6789 66.1548 75.2852 64.0341 72.054C62.0288 68.9864 62.9366 65.4449 66.1601 63.7411L66.1691 63.7316Z" fill="white" fill-opacity="0.8"/>
<path d="M107.34 47.8214C109.384 51.6379 107.766 57.0678 103.968 59.1199C100.873 60.7926 97.2667 59.507 95.9233 56.2648C94.3027 52.3263 95.8538 47.5369 99.4027 45.5283C102.441 43.8108 105.696 44.7537 107.34 47.8214Z" fill="white" fill-opacity="0.8"/>
</g>
<g filter="url(#filter4_dd_336_961)">
<path d="M29.687 15.7544C31.2281 14.1406 33.0943 13.6384 35.2206 14.2404C37.9439 15.0121 40.6631 15.2746 43.4943 14.8585C45.6986 14.542 47.9826 16.223 48.8471 18.4964C49.6817 20.6872 48.9771 23.1402 47.06 24.5324C46.2513 25.1181 45.3567 25.6042 44.4811 26.1084C41.9822 27.5527 40.1006 29.6013 38.5432 32.0117C37.9292 32.9626 37.1572 33.8899 36.2486 34.5523C34.4318 35.8863 32.429 35.7625 30.5748 34.5887C28.6736 33.3884 27.5715 31.5934 28.0124 29.3231C28.5435 26.6061 28.4935 23.969 27.9054 21.2904C27.4323 19.1179 27.9573 17.2343 29.687 15.7544Z" fill="white" fill-opacity="0.8"/>
<path d="M32.5974 2.70896C33.9704 4.24702 34.7956 6.07706 34.7957 8.21552C34.7963 10.0207 34.1977 11.5637 32.5363 12.4679C30.8295 13.401 29.1717 13.0182 27.6638 11.9928C25.4772 10.4944 24.2917 8.34051 24.1307 5.70632C24.004 3.68224 24.5774 1.88064 26.5621 0.949587C28.5192 0.0285015 30.2594 0.733109 31.847 1.97861C32.1021 2.17565 32.3216 2.42915 32.5974 2.70896Z" fill="white" fill-opacity="0.8"/>
<path d="M25.5849 12.5284C25.8401 13.0864 26.5061 14.1337 26.795 15.2741C27.3632 17.5459 26.0277 19.5895 23.7557 20.1485C21.2811 20.7498 19.0764 19.9832 17.2384 18.3646C16.3478 17.5824 15.553 16.5662 15.0806 15.4861C13.7722 12.5207 15.5961 9.67757 18.8401 9.47287C21.3448 9.31518 23.3812 10.3731 25.5847 12.5191L25.5849 12.5284Z" fill="white" fill-opacity="0.8"/>
<path d="M16.3722 23.1362C18.8771 20.8493 23.2793 21.0404 25.557 23.5455C27.4723 25.6434 27.1334 28.6331 24.7878 30.2771C22.2512 32.0557 18.6175 31.8724 16.3891 29.8382C14.2746 27.9121 14.2653 25.061 16.3722 23.1362Z" fill="white" fill-opacity="0.8"/>
<path d="M44.39 3.04117C46.6857 5.52728 46.5229 9.94731 44.0553 12.2425C42.0397 14.1186 39.0611 13.8536 37.4117 11.6561C35.417 8.99557 35.6573 5.06417 37.9421 2.85704C39.9017 0.963856 42.5512 1.03383 44.3898 3.03192L44.39 3.04117Z" fill="white" fill-opacity="0.8"/>
</g>
<defs>
<filter id="filter0_d_336_961" x="0.796875" y="282.62" width="132.03" height="132.907" filterUnits="userSpaceOnUse" color-interpolation-filters="sRGB">
<feFlood flood-opacity="0" result="BackgroundImageFix"/>
<feColorMatrix in="SourceAlpha" type="matrix" values="0 0 0 0 0 0 0 0 0 0 0 0 0 0 0 0 0 0 127 0" result="hardAlpha"/>
<feOffset dy="4"/>
<feGaussianBlur stdDeviation="2"/>
<feComposite in2="hardAlpha" operator="out"/>
<feColorMatrix type="matrix" values="0 0 0 0 0 0 0 0 0 0 0 0 0 0 0 0 0 0 0.25 0"/>
<feBlend mode="normal" in2="BackgroundImageFix" result="effect1_dropShadow_336_961"/>
<feBlend mode="normal" in="SourceGraphic" in2="effect1_dropShadow_336_961" result="shape"/>
</filter>
<filter id="filter1_d_336_961" x="78.5371" y="188.123" width="91.1377" height="89.5969" filterUnits="userSpaceOnUse" color-interpolation-filters="sRGB">
<feFlood flood-opacity="0" result="BackgroundImageFix"/>
<feColorMatrix in="SourceAlpha" type="matrix" values="0 0 0 0 0 0 0 0 0 0 0 0 0 0 0 0 0 0 127 0" result="hardAlpha"/>
<feOffset dy="4"/>
<feGaussianBlur stdDeviation="2"/>
<feComposite in2="hardAlpha" operator="out"/>
<feColorMatrix type="matrix" values="0 0 0 0 0 0 0 0 0 0 0 0 0 0 0 0 0 0 0.25 0"/>
<feBlend mode="normal" in2="BackgroundImageFix" result="effect1_dropShadow_336_961"/>
<feBlend mode="normal" in="SourceGraphic" in2="effect1_dropShadow_336_961" result="shape"/>
</filter>
<filter id="filter2_d_336_961" x="89.4658" y="106.059" width="68.3535" height="61.2529" filterUnits="userSpaceOnUse" color-interpolation-filters="sRGB">
<feFlood flood-opacity="0" result="BackgroundImageFix"/>
<feColorMatrix in="SourceAlpha" type="matrix" values="0 0 0 0 0 0 0 0 0 0 0 0 0 0 0 0 0 0 127 0" result="hardAlpha"/>
<feOffset dy="4"/>
<feGaussianBlur stdDeviation="2"/>
<feComposite in2="hardAlpha" operator="out"/>
<feColorMatrix type="matrix" values="0 0 0 0 0 0 0 0 0 0 0 0 0 0 0 0 0 0 0.25 0"/>
<feBlend mode="normal" in2="BackgroundImageFix" result="effect1_dropShadow_336_961"/>
<feBlend mode="normal" in="SourceGraphic" in2="effect1_dropShadow_336_961" result="shape"/>
</filter>
<filter id="filter3_d_336_961" x="58.9727" y="39.4045" width="53.2588" height="53.3328" filterUnits="userSpaceOnUse" color-interpolation-filters="sRGB">
<feFlood flood-opacity="0" result="BackgroundImageFix"/>
<feColorMatrix in="SourceAlpha" type="matrix" values="0 0 0 0 0 0 0 0 0 0 0 0 0 0 0 0 0 0 127 0" result="hardAlpha"/>
<feOffset dy="4"/>
<feGaussianBlur stdDeviation="2"/>
<feComposite in2="hardAlpha" operator="out"/>
<feColorMatrix type="matrix" values="0 0 0 0 0 0 0 0 0 0 0 0 0 0 0 0 0 0 0.25 0"/>
<feBlend mode="normal" in2="BackgroundImageFix" result="effect1_dropShadow_336_961"/>
<feBlend mode="normal" in="SourceGraphic" in2="effect1_dropShadow_336_961" result="shape"/>
</filter>
<filter id="filter4_dd_336_961" x="10.6533" y="0.529053" width="42.54" height="42.9822" filterUnits="userSpaceOnUse" color-interpolation-filters="sRGB">
<feFlood flood-opacity="0" result="BackgroundImageFix"/>
<feColorMatrix in="SourceAlpha" type="matrix" values="0 0 0 0 0 0 0 0 0 0 0 0 0 0 0 0 0 0 127 0" result="hardAlpha"/>
<feOffset dy="4"/>
<feGaussianBlur stdDeviation="2"/>
<feComposite in2="hardAlpha" operator="out"/>
<feColorMatrix type="matrix" values="0 0 0 0 0 0 0 0 0 0 0 0 0 0 0 0 0 0 0.25 0"/>
<feBlend mode="normal" in2="BackgroundImageFix" result="effect1_dropShadow_336_961"/>
<feColorMatrix in="SourceAlpha" type="matrix" values="0 0 0 0 0 0 0 0 0 0 0 0 0 0 0 0 0 0 127 0" result="hardAlpha"/>
<feOffset dy="4"/>
<feGaussianBlur stdDeviation="2"/>
<feComposite in2="hardAlpha" operator="out"/>
<feColorMatrix type="matrix" values="0 0 0 0 0 0 0 0 0 0 0 0 0 0 0 0 0 0 0.25 0"/>
<feBlend mode="normal" in2="effect1_dropShadow_336_961" result="effect2_dropShadow_336_961"/>
<feBlend mode="normal" in="SourceGraphic" in2="effect2_dropShadow_336_961" result="shape"/>
</filter>
</defs>
</svg>
