<svg class="svg-icon" style="width: 1em; height: 1em;vertical-align: middle;fill: currentColor;overflow: hidden;" viewBox="0 0 1024 1024" version="1.1" xmlns="http://www.w3.org/2000/svg"><path d="M520.45056 875.19488 101.02016 875.19488C43.20512 875.19488 1.28 833.30432 1.28 775.45984L1.28 216.22016C1.28 158.40512 43.20512 116.48 101.02016 116.48l803.90528 0c57.80992 0 104.86016 41.88928 104.86016 99.74016l0 174.75968c0 19.29472-9.22496 34.95424-28.55552 34.95424s-31.1104-15.65952-31.1104-29.83424L950.11968 216.22016c0-24.416-15.65952-40.07552-34.95552-40.07552L101.02016 176.14464c-19.26016 0-45.19552 20.81536-45.19552 40.07552l0 564.35968c0 19.28832 15.69536 34.94912 34.95552 34.94912l429.6704 0c19.32544 0 34.9504 10.50496 34.9504 29.83552C555.39968 864.68992 539.77472 875.19488 520.45056 875.19488L520.45056 875.19488zM520.45056 875.19488"  /><path d="M974.83008 350.90816 66.06464 350.90816c-19.29472 5.12-34.94912-10.53952-34.94912-29.83552 0-19.29472 15.6544-29.82912 34.94912-29.82912l908.76544 0c19.33056 0 34.95552 10.5344 34.95552 29.82912C1009.7856 340.36992 994.16064 350.90816 974.83008 350.90816L974.83008 350.90816zM974.83008 356.02816"  /><path d="M800.34944 892.45312c-115.55968 0-209.5744-94.01344-209.5744-209.57312 0-115.56096 94.01472-209.5744 209.5744-209.5744C915.90528 473.3056 1009.92 567.31904 1009.92 682.88l-41.91488 0c0-92.45056-75.21024-167.65952-167.6544-167.65952-92.45056 0-167.65952 75.21024-167.65952 167.65952 0 92.44416 75.21024 167.65952 167.65952 167.65952 44.15488 0 85.83552-17.02656 117.36064-47.92448l29.34016 29.93024C907.64032 871.1744 855.5456 892.45312 800.34944 892.45312L800.34944 892.45312zM800.34944 892.45312"  /><path d="M875.7952 703.83488l-105.83552 0 0-124.69504 41.91488 0 0 82.78016 63.92064 0L875.7952 703.83488zM875.7952 703.83488"  /><path d="M856.9344 748.89472l150.89024 0 0 150.89024L856.9344 748.89472zM856.9344 748.89472"  /></svg>