<svg class="svg-icon" style="width: 1em;height: 1em;vertical-align: middle;fill: currentColor;overflow: hidden;" viewBox="0 0 1024 1024" version="1.1" xmlns="http://www.w3.org/2000/svg"><path d="M956.9 374.6c-12.7-26.5-80.8-28.4-80.8-28.4l-208.8 1.3-94.4-208.9s-39.6-62.4-73.7-62.2c-35 0.2-64.4 63.1-64.4 63.1l-82.6 201.2c-4.6 11.1-63 6.4-72.7 6.5-36 0.2-72.1 0.7-108-2.8-32.4-3.2-76.9-10-99.9 19.6-21.1 27.2 6.6 81.2 25.3 102.8 26.1 30.2 61.5 50.3 91.8 75.7 26.6 22.3 53.2 44.6 79.7 67l-73.5 246.6s-9.6 68 12.5 85.4c24.5 19.2 81-11.9 81-11.9l222.3-148.2 206.9 149.5s65.3 25.1 91.1 4.1c21.5-17.5 4.2-81.7 4.2-81.7L753.3 596l177-146.3c0.1-0.2 41-45.1 26.6-75.1z m-134.1 90.9L668 574.2l47.6 190.9s12.8 47.7-3.1 60.7c-19.1 15.6-47.5-18.1-47.5-18.1l-159.5-126-0.3 0.3 0.9-493.1c24.5 3.5 51.4 46 51.4 46l60 178.5 155-0.9s50.6 1.3 60 21c10.7 22.2-9.7 32-9.7 32z" fill="#040000" /></svg>