<svg class="svg-icon" style="width: 1.0029296875em; height: 1em;vertical-align: middle;fill: currentColor;overflow: hidden;" viewBox="0 0 1027 1024" version="1.1" xmlns="http://www.w3.org/2000/svg"><path d="M273.066667 853.333333c-75.093333 0-136.533333-61.44-136.533334-136.533333s61.44-136.533333 136.533334-136.533333 136.533333 61.44 136.533333 136.533333-61.44 136.533333-136.533333 136.533333z m0-238.933333c-58.026667 0-102.4 44.373333-102.4 102.4s44.373333 102.4 102.4 102.4 102.4-44.373333 102.4-102.4-44.373333-102.4-102.4-102.4zM750.933333 853.333333c-75.093333 0-136.533333-61.44-136.533333-136.533333s61.44-136.533333 136.533333-136.533333 136.533333 61.44 136.533334 136.533333-61.44 136.533333-136.533334 136.533333z m0-238.933333c-58.026667 0-102.4 44.373333-102.4 102.4s44.373333 102.4 102.4 102.4 102.4-44.373333 102.4-102.4-44.373333-102.4-102.4-102.4z" fill="" /><path d="M894.293333 716.8c-10.24 0-17.066667-6.826667-17.066666-17.066667s6.826667-17.066667 17.066666-17.066666 20.48-6.826667 23.893334-13.653334l40.96-81.92c20.48-40.96 30.72-85.333333 30.72-126.293333 0-30.72-13.653333-61.44-37.546667-78.506667l-180.906667-150.186666c-17.066667-17.066667-40.96-23.893333-68.266666-23.893334H276.48c-34.133333 0-64.853333 17.066667-78.506667 47.786667l-153.6 303.786667c-6.826667 10.24-10.24 23.893333-10.24 37.546666C34.133333 645.12 71.68 682.666667 122.88 682.666667h23.893333c10.24 0 17.066667 6.826667 17.066667 17.066666s-6.826667 17.066667-17.066667 17.066667h-23.893333c-68.266667 0-122.88-54.613333-122.88-119.466667 0-17.066667 3.413333-37.546667 13.653333-54.613333L167.253333 238.933333c20.48-40.96 61.44-68.266667 109.226667-68.266666h430.08c30.72 0 64.853333 10.24 88.746667 30.72l180.906666 150.186666c30.72 27.306667 51.2 64.853333 51.2 105.813334 0 47.786667-10.24 98.986667-34.133333 143.36L948.906667 682.666667c-10.24 20.48-30.72 34.133333-54.613334 34.133333z" fill="" /><path d="M665.6 477.866667c-3.413333 0-10.24-3.413333-13.653333-6.826667-3.413333-3.413333-3.413333-6.826667-3.413334-13.653333l34.133334-170.666667c0-6.826667 6.826667-10.24 10.24-13.653333 6.826667-3.413333 10.24 0 17.066666 3.413333l204.8 153.6c6.826667 3.413333 6.826667 10.24 6.826667 17.066667s-6.826667 10.24-13.653333 13.653333l-242.346667 17.066667z m44.373333-157.013334l-23.893333 122.88 170.666667-13.653333-146.773334-109.226667zM631.466667 716.8h-238.933334c-10.24 0-17.066667-6.826667-17.066666-17.066667s6.826667-17.066667 17.066666-17.066666h238.933334c10.24 0 17.066667 6.826667 17.066666 17.066666s-6.826667 17.066667-17.066666 17.066667zM324.266667 273.066667h-307.2C6.826667 273.066667 0 266.24 0 256S6.826667 238.933333 17.066667 238.933333h307.2c10.24 0 17.066667 6.826667 17.066666 17.066667s-6.826667 17.066667-17.066666 17.066667zM221.866667 409.6h-204.8c-10.24 0-17.066667-6.826667-17.066667-17.066667s6.826667-17.066667 17.066667-17.066666h204.8c10.24 0 17.066667 6.826667 17.066666 17.066666s-6.826667 17.066667-17.066666 17.066667zM153.6 546.133333h-136.533333c-10.24 0-17.066667-6.826667-17.066667-17.066666s6.826667-17.066667 17.066667-17.066667h136.533333c10.24 0 17.066667 6.826667 17.066667 17.066667s-6.826667 17.066667-17.066667 17.066666z" fill="" /></svg>